<svg xmlns="http://www.w3.org/2000/svg" xmlns:xlink="http://www.w3.org/1999/xlink" width="443" class="chart" x="0px" y="0px" viewBox="0 0 102 64">
<style>
.chart> polygon,
.chart> rect {
    fill: currentColor;
    stroke: currentColor;
    stroke-miterlimit: 10;
    stroke-linecap: round;
    stroke-linejoin: round;
    stroke-width: 0.4;
}

.line {
    fill: none;
    stroke: #ffffffde;
    stroke-miterlimit: 10;
    stroke-width: 1;
}

.front.blue { color: #369bee; }
.side.blue { color: #3183c5; }
.top.blue { color: #5ab4fd; }

.front.orange { color: #f0703d; }
.side.orange { color: #d76031; }
.top.orange { color: #ff8454; }

.front.red { color: #fb3a30; }
.side.red { color: #c92f27; }
.top.red { color: #fd625a; }

.front.yellow { color: #f0b13d; }
.side.yellow { color: #c29034; }
.top.yellow { color: #ffc354; }
</style>
<rect class="front blue" x="2" y="8" width="14" height="56"></rect>
<polygon class="side blue" points="16,8 20,4 20,60 16,64"></polygon>
<polygon class="top blue" points="2,8 6,4 20,4 16,8"></polygon>
<rect class="front blue" x="18" y="22" width="14" height="42"></rect>
<polygon class="side blue" points="32,22 36,18 36,60 32,64"></polygon>
<polygon class="top blue" points="18,22 22,18 36,18 32,22"></polygon>
<rect class="front yellow" x="34" y="28.159999999999997" width="14" height="35.84"></rect>
<polygon class="side yellow" points="48,28.159999999999997 52,24.159999999999997 52,60 48,64"></polygon>
<polygon class="top yellow" points="34,28.159999999999997 38,24.159999999999997 52,24.159999999999997 48,28.159999999999997"></polygon>
<rect class="front red" x="50" y="56.16" width="14" height="7.84"></rect>
<polygon class="side red" points="64,56.16 68,52.16 68,60 64,64"></polygon>
<polygon class="top red" points="50,56.16 54,52.16 68,52.16 64,56.16"></polygon>
<rect class="front orange" x="66" y="39.36" width="14" height="24.64"></rect>
<polygon class="side orange" points="80,39.36 84,35.36 84,60 80,64"></polygon>
<polygon class="top orange" points="66,39.36 70,35.36 84,35.36 80,39.36"></polygon>
<rect class="front orange" x="82" y="48.32" width="14" height="15.68"></rect>
<polygon class="side orange" points="96,48.32 100,44.32 100,60 96,64"></polygon>
<polygon class="top orange" points="82,48.32 86,44.32 100,44.32 96,48.32"></polygon>
<circle class="line blue" cx="10" cy="6" r="4"></circle>undefined<circle class="line blue" cx="26" cy="20" r="4"></circle>
<line class="line blue" x1="22.989693221172487" y1="17.36598156852593" x2="13.01030677882751" y2="8.634018431474072"></line>
<circle class="line yellow" cx="42" cy="26.159999999999997" r="4"></circle>
<line class="line yellow" x1="38.26709882865302" y1="24.72283304903141" x2="29.73290117134698" y2="21.437166950968585"></line>
<circle class="line red" cx="58" cy="54.16" r="4"></circle>
<line class="line red" x1="56.01544424657266" y1="50.68702743150216" x2="43.98455575342734" y2="29.632972568497834"></line>
<circle class="line orange" cx="74" cy="37.36" r="4"></circle>
<line class="line orange" x1="71.24137931034483" y1="40.25655172413793" x2="60.758620689655174" y2="51.26344827586207"></line>
<circle class="line orange" cx="90" cy="46.32" r="4"></circle>
<line class="line orange" x1="86.50997593620112" y1="44.36558652427263" x2="77.49002406379888" y2="39.31441347572737"></line>
</svg>
